<?xml version="1.0" encoding="utf-8" standalone="no"?>
<!DOCTYPE svg PUBLIC "-//W3C//DTD SVG 1.1//EN"
  "http://www.w3.org/Graphics/SVG/1.1/DTD/svg11.dtd">
<!-- Created with matplotlib (https://matplotlib.org/) -->
<svg height="345.6pt" version="1.1" viewBox="0 0 460.8 345.6" width="460.8pt" xmlns="http://www.w3.org/2000/svg" xmlns:xlink="http://www.w3.org/1999/xlink">
 <defs>
  <style type="text/css">
*{stroke-linecap:butt;stroke-linejoin:round;}
  </style>
 </defs>
 <g id="figure_1">
  <g id="patch_1">
   <path d="M 0 345.6 
L 460.8 345.6 
L 460.8 0 
L 0 0 
z
" style="fill:#ffffff;"/>
  </g>
  <g id="axes_1">
   <g id="patch_2">
    <path d="M 57.6 307.584 
L 414.72 307.584 
L 414.72 41.472 
L 57.6 41.472 
z
" style="fill:#e5e5e5;"/>
   </g>
   <g id="matplotlib.axis_1">
    <g id="xtick_1">
     <g id="line2d_1">
      <path clip-path="url(#p760a625355)" d="M 68.235235 307.584 
L 68.235235 41.472 
" style="fill:none;stroke:#ffffff;stroke-linecap:square;stroke-width:0.8;"/>
     </g>
     <g id="line2d_2">
      <defs>
       <path d="M 0 0 
L 0 3.5 
" id="m067da5c553" style="stroke:#555555;stroke-width:0.8;"/>
      </defs>
      <g>
       <use style="fill:#555555;stroke:#555555;stroke-width:0.8;" x="68.235235" xlink:href="#m067da5c553" y="307.584"/>
      </g>
     </g>
     <g id="text_1">
      <!-- 0 -->
      <defs>
       <path d="M 31.78125 66.40625 
Q 24.171875 66.40625 20.328125 58.90625 
Q 16.5 51.421875 16.5 36.375 
Q 16.5 21.390625 20.328125 13.890625 
Q 24.171875 6.390625 31.78125 6.390625 
Q 39.453125 6.390625 43.28125 13.890625 
Q 47.125 21.390625 47.125 36.375 
Q 47.125 51.421875 43.28125 58.90625 
Q 39.453125 66.40625 31.78125 66.40625 
z
M 31.78125 74.21875 
Q 44.046875 74.21875 50.515625 64.515625 
Q 56.984375 54.828125 56.984375 36.375 
Q 56.984375 17.96875 50.515625 8.265625 
Q 44.046875 -1.421875 31.78125 -1.421875 
Q 19.53125 -1.421875 13.0625 8.265625 
Q 6.59375 17.96875 6.59375 36.375 
Q 6.59375 54.828125 13.0625 64.515625 
Q 19.53125 74.21875 31.78125 74.21875 
z
" id="DejaVuSans-48"/>
      </defs>
      <g style="fill:#555555;" transform="translate(65.053985 322.182437)scale(0.1 -0.1)">
       <use xlink:href="#DejaVuSans-48"/>
      </g>
     </g>
    </g>
    <g id="xtick_2">
     <g id="line2d_3">
      <path clip-path="url(#p760a625355)" d="M 124.210157 307.584 
L 124.210157 41.472 
" style="fill:none;stroke:#ffffff;stroke-linecap:square;stroke-width:0.8;"/>
     </g>
     <g id="line2d_4">
      <g>
       <use style="fill:#555555;stroke:#555555;stroke-width:0.8;" x="124.210157" xlink:href="#m067da5c553" y="307.584"/>
      </g>
     </g>
     <g id="text_2">
      <!-- 10 -->
      <defs>
       <path d="M 12.40625 8.296875 
L 28.515625 8.296875 
L 28.515625 63.921875 
L 10.984375 60.40625 
L 10.984375 69.390625 
L 28.421875 72.90625 
L 38.28125 72.90625 
L 38.28125 8.296875 
L 54.390625 8.296875 
L 54.390625 0 
L 12.40625 0 
z
" id="DejaVuSans-49"/>
      </defs>
      <g style="fill:#555555;" transform="translate(117.847657 322.182437)scale(0.1 -0.1)">
       <use xlink:href="#DejaVuSans-49"/>
       <use x="63.623047" xlink:href="#DejaVuSans-48"/>
      </g>
     </g>
    </g>
    <g id="xtick_3">
     <g id="line2d_5">
      <path clip-path="url(#p760a625355)" d="M 180.185078 307.584 
L 180.185078 41.472 
" style="fill:none;stroke:#ffffff;stroke-linecap:square;stroke-width:0.8;"/>
     </g>
     <g id="line2d_6">
      <g>
       <use style="fill:#555555;stroke:#555555;stroke-width:0.8;" x="180.185078" xlink:href="#m067da5c553" y="307.584"/>
      </g>
     </g>
     <g id="text_3">
      <!-- 20 -->
      <defs>
       <path d="M 19.1875 8.296875 
L 53.609375 8.296875 
L 53.609375 0 
L 7.328125 0 
L 7.328125 8.296875 
Q 12.9375 14.109375 22.625 23.890625 
Q 32.328125 33.6875 34.8125 36.53125 
Q 39.546875 41.84375 41.421875 45.53125 
Q 43.3125 49.21875 43.3125 52.78125 
Q 43.3125 58.59375 39.234375 62.25 
Q 35.15625 65.921875 28.609375 65.921875 
Q 23.96875 65.921875 18.8125 64.3125 
Q 13.671875 62.703125 7.8125 59.421875 
L 7.8125 69.390625 
Q 13.765625 71.78125 18.9375 73 
Q 24.125 74.21875 28.421875 74.21875 
Q 39.75 74.21875 46.484375 68.546875 
Q 53.21875 62.890625 53.21875 53.421875 
Q 53.21875 48.921875 51.53125 44.890625 
Q 49.859375 40.875 45.40625 35.40625 
Q 44.1875 33.984375 37.640625 27.21875 
Q 31.109375 20.453125 19.1875 8.296875 
z
" id="DejaVuSans-50"/>
      </defs>
      <g style="fill:#555555;" transform="translate(173.822578 322.182437)scale(0.1 -0.1)">
       <use xlink:href="#DejaVuSans-50"/>
       <use x="63.623047" xlink:href="#DejaVuSans-48"/>
      </g>
     </g>
    </g>
    <g id="xtick_4">
     <g id="line2d_7">
      <path clip-path="url(#p760a625355)" d="M 236.16 307.584 
L 236.16 41.472 
" style="fill:none;stroke:#ffffff;stroke-linecap:square;stroke-width:0.8;"/>
     </g>
     <g id="line2d_8">
      <g>
       <use style="fill:#555555;stroke:#555555;stroke-width:0.8;" x="236.16" xlink:href="#m067da5c553" y="307.584"/>
      </g>
     </g>
     <g id="text_4">
      <!-- 30 -->
      <defs>
       <path d="M 40.578125 39.3125 
Q 47.65625 37.796875 51.625 33 
Q 55.609375 28.21875 55.609375 21.1875 
Q 55.609375 10.40625 48.1875 4.484375 
Q 40.765625 -1.421875 27.09375 -1.421875 
Q 22.515625 -1.421875 17.65625 -0.515625 
Q 12.796875 0.390625 7.625 2.203125 
L 7.625 11.71875 
Q 11.71875 9.328125 16.59375 8.109375 
Q 21.484375 6.890625 26.8125 6.890625 
Q 36.078125 6.890625 40.9375 10.546875 
Q 45.796875 14.203125 45.796875 21.1875 
Q 45.796875 27.640625 41.28125 31.265625 
Q 36.765625 34.90625 28.71875 34.90625 
L 20.21875 34.90625 
L 20.21875 43.015625 
L 29.109375 43.015625 
Q 36.375 43.015625 40.234375 45.921875 
Q 44.09375 48.828125 44.09375 54.296875 
Q 44.09375 59.90625 40.109375 62.90625 
Q 36.140625 65.921875 28.71875 65.921875 
Q 24.65625 65.921875 20.015625 65.03125 
Q 15.375 64.15625 9.8125 62.3125 
L 9.8125 71.09375 
Q 15.4375 72.65625 20.34375 73.4375 
Q 25.25 74.21875 29.59375 74.21875 
Q 40.828125 74.21875 47.359375 69.109375 
Q 53.90625 64.015625 53.90625 55.328125 
Q 53.90625 49.265625 50.4375 45.09375 
Q 46.96875 40.921875 40.578125 39.3125 
z
" id="DejaVuSans-51"/>
      </defs>
      <g style="fill:#555555;" transform="translate(229.7975 322.182437)scale(0.1 -0.1)">
       <use xlink:href="#DejaVuSans-51"/>
       <use x="63.623047" xlink:href="#DejaVuSans-48"/>
      </g>
     </g>
    </g>
    <g id="xtick_5">
     <g id="line2d_9">
      <path clip-path="url(#p760a625355)" d="M 292.134922 307.584 
L 292.134922 41.472 
" style="fill:none;stroke:#ffffff;stroke-linecap:square;stroke-width:0.8;"/>
     </g>
     <g id="line2d_10">
      <g>
       <use style="fill:#555555;stroke:#555555;stroke-width:0.8;" x="292.134922" xlink:href="#m067da5c553" y="307.584"/>
      </g>
     </g>
     <g id="text_5">
      <!-- 40 -->
      <defs>
       <path d="M 37.796875 64.3125 
L 12.890625 25.390625 
L 37.796875 25.390625 
z
M 35.203125 72.90625 
L 47.609375 72.90625 
L 47.609375 25.390625 
L 58.015625 25.390625 
L 58.015625 17.1875 
L 47.609375 17.1875 
L 47.609375 0 
L 37.796875 0 
L 37.796875 17.1875 
L 4.890625 17.1875 
L 4.890625 26.703125 
z
" id="DejaVuSans-52"/>
      </defs>
      <g style="fill:#555555;" transform="translate(285.772422 322.182437)scale(0.1 -0.1)">
       <use xlink:href="#DejaVuSans-52"/>
       <use x="63.623047" xlink:href="#DejaVuSans-48"/>
      </g>
     </g>
    </g>
    <g id="xtick_6">
     <g id="line2d_11">
      <path clip-path="url(#p760a625355)" d="M 348.109843 307.584 
L 348.109843 41.472 
" style="fill:none;stroke:#ffffff;stroke-linecap:square;stroke-width:0.8;"/>
     </g>
     <g id="line2d_12">
      <g>
       <use style="fill:#555555;stroke:#555555;stroke-width:0.8;" x="348.109843" xlink:href="#m067da5c553" y="307.584"/>
      </g>
     </g>
     <g id="text_6">
      <!-- 50 -->
      <defs>
       <path d="M 10.796875 72.90625 
L 49.515625 72.90625 
L 49.515625 64.59375 
L 19.828125 64.59375 
L 19.828125 46.734375 
Q 21.96875 47.46875 24.109375 47.828125 
Q 26.265625 48.1875 28.421875 48.1875 
Q 40.625 48.1875 47.75 41.5 
Q 54.890625 34.8125 54.890625 23.390625 
Q 54.890625 11.625 47.5625 5.09375 
Q 40.234375 -1.421875 26.90625 -1.421875 
Q 22.3125 -1.421875 17.546875 -0.640625 
Q 12.796875 0.140625 7.71875 1.703125 
L 7.71875 11.625 
Q 12.109375 9.234375 16.796875 8.0625 
Q 21.484375 6.890625 26.703125 6.890625 
Q 35.15625 6.890625 40.078125 11.328125 
Q 45.015625 15.765625 45.015625 23.390625 
Q 45.015625 31 40.078125 35.4375 
Q 35.15625 39.890625 26.703125 39.890625 
Q 22.75 39.890625 18.8125 39.015625 
Q 14.890625 38.140625 10.796875 36.28125 
z
" id="DejaVuSans-53"/>
      </defs>
      <g style="fill:#555555;" transform="translate(341.747343 322.182437)scale(0.1 -0.1)">
       <use xlink:href="#DejaVuSans-53"/>
       <use x="63.623047" xlink:href="#DejaVuSans-48"/>
      </g>
     </g>
    </g>
    <g id="xtick_7">
     <g id="line2d_13">
      <path clip-path="url(#p760a625355)" d="M 404.084765 307.584 
L 404.084765 41.472 
" style="fill:none;stroke:#ffffff;stroke-linecap:square;stroke-width:0.8;"/>
     </g>
     <g id="line2d_14">
      <g>
       <use style="fill:#555555;stroke:#555555;stroke-width:0.8;" x="404.084765" xlink:href="#m067da5c553" y="307.584"/>
      </g>
     </g>
     <g id="text_7">
      <!-- 60 -->
      <defs>
       <path d="M 33.015625 40.375 
Q 26.375 40.375 22.484375 35.828125 
Q 18.609375 31.296875 18.609375 23.390625 
Q 18.609375 15.53125 22.484375 10.953125 
Q 26.375 6.390625 33.015625 6.390625 
Q 39.65625 6.390625 43.53125 10.953125 
Q 47.40625 15.53125 47.40625 23.390625 
Q 47.40625 31.296875 43.53125 35.828125 
Q 39.65625 40.375 33.015625 40.375 
z
M 52.59375 71.296875 
L 52.59375 62.3125 
Q 48.875 64.0625 45.09375 64.984375 
Q 41.3125 65.921875 37.59375 65.921875 
Q 27.828125 65.921875 22.671875 59.328125 
Q 17.53125 52.734375 16.796875 39.40625 
Q 19.671875 43.65625 24.015625 45.921875 
Q 28.375 48.1875 33.59375 48.1875 
Q 44.578125 48.1875 50.953125 41.515625 
Q 57.328125 34.859375 57.328125 23.390625 
Q 57.328125 12.15625 50.6875 5.359375 
Q 44.046875 -1.421875 33.015625 -1.421875 
Q 20.359375 -1.421875 13.671875 8.265625 
Q 6.984375 17.96875 6.984375 36.375 
Q 6.984375 53.65625 15.1875 63.9375 
Q 23.390625 74.21875 37.203125 74.21875 
Q 40.921875 74.21875 44.703125 73.484375 
Q 48.484375 72.75 52.59375 71.296875 
z
" id="DejaVuSans-54"/>
      </defs>
      <g style="fill:#555555;" transform="translate(397.722265 322.182437)scale(0.1 -0.1)">
       <use xlink:href="#DejaVuSans-54"/>
       <use x="63.623047" xlink:href="#DejaVuSans-48"/>
      </g>
     </g>
    </g>
    <g id="text_8">
     <!-- Test images -->
     <defs>
      <path d="M -0.296875 72.90625 
L 61.375 72.90625 
L 61.375 64.59375 
L 35.5 64.59375 
L 35.5 0 
L 25.59375 0 
L 25.59375 64.59375 
L -0.296875 64.59375 
z
" id="DejaVuSans-84"/>
      <path d="M 56.203125 29.59375 
L 56.203125 25.203125 
L 14.890625 25.203125 
Q 15.484375 15.921875 20.484375 11.0625 
Q 25.484375 6.203125 34.421875 6.203125 
Q 39.59375 6.203125 44.453125 7.46875 
Q 49.3125 8.734375 54.109375 11.28125 
L 54.109375 2.78125 
Q 49.265625 0.734375 44.1875 -0.34375 
Q 39.109375 -1.421875 33.890625 -1.421875 
Q 20.796875 -1.421875 13.15625 6.1875 
Q 5.515625 13.8125 5.515625 26.8125 
Q 5.515625 40.234375 12.765625 48.109375 
Q 20.015625 56 32.328125 56 
Q 43.359375 56 49.78125 48.890625 
Q 56.203125 41.796875 56.203125 29.59375 
z
M 47.21875 32.234375 
Q 47.125 39.59375 43.09375 43.984375 
Q 39.0625 48.390625 32.421875 48.390625 
Q 24.90625 48.390625 20.390625 44.140625 
Q 15.875 39.890625 15.1875 32.171875 
z
" id="DejaVuSans-101"/>
      <path d="M 44.28125 53.078125 
L 44.28125 44.578125 
Q 40.484375 46.53125 36.375 47.5 
Q 32.28125 48.484375 27.875 48.484375 
Q 21.1875 48.484375 17.84375 46.4375 
Q 14.5 44.390625 14.5 40.28125 
Q 14.5 37.15625 16.890625 35.375 
Q 19.28125 33.59375 26.515625 31.984375 
L 29.59375 31.296875 
Q 39.15625 29.25 43.1875 25.515625 
Q 47.21875 21.78125 47.21875 15.09375 
Q 47.21875 7.46875 41.1875 3.015625 
Q 35.15625 -1.421875 24.609375 -1.421875 
Q 20.21875 -1.421875 15.453125 -0.5625 
Q 10.6875 0.296875 5.421875 2 
L 5.421875 11.28125 
Q 10.40625 8.6875 15.234375 7.390625 
Q 20.0625 6.109375 24.8125 6.109375 
Q 31.15625 6.109375 34.5625 8.28125 
Q 37.984375 10.453125 37.984375 14.40625 
Q 37.984375 18.0625 35.515625 20.015625 
Q 33.0625 21.96875 24.703125 23.78125 
L 21.578125 24.515625 
Q 13.234375 26.265625 9.515625 29.90625 
Q 5.8125 33.546875 5.8125 39.890625 
Q 5.8125 47.609375 11.28125 51.796875 
Q 16.75 56 26.8125 56 
Q 31.78125 56 36.171875 55.265625 
Q 40.578125 54.546875 44.28125 53.078125 
z
" id="DejaVuSans-115"/>
      <path d="M 18.3125 70.21875 
L 18.3125 54.6875 
L 36.8125 54.6875 
L 36.8125 47.703125 
L 18.3125 47.703125 
L 18.3125 18.015625 
Q 18.3125 11.328125 20.140625 9.421875 
Q 21.96875 7.515625 27.59375 7.515625 
L 36.8125 7.515625 
L 36.8125 0 
L 27.59375 0 
Q 17.1875 0 13.234375 3.875 
Q 9.28125 7.765625 9.28125 18.015625 
L 9.28125 47.703125 
L 2.6875 47.703125 
L 2.6875 54.6875 
L 9.28125 54.6875 
L 9.28125 70.21875 
z
" id="DejaVuSans-116"/>
      <path id="DejaVuSans-32"/>
      <path d="M 9.421875 54.6875 
L 18.40625 54.6875 
L 18.40625 0 
L 9.421875 0 
z
M 9.421875 75.984375 
L 18.40625 75.984375 
L 18.40625 64.59375 
L 9.421875 64.59375 
z
" id="DejaVuSans-105"/>
      <path d="M 52 44.1875 
Q 55.375 50.25 60.0625 53.125 
Q 64.75 56 71.09375 56 
Q 79.640625 56 84.28125 50.015625 
Q 88.921875 44.046875 88.921875 33.015625 
L 88.921875 0 
L 79.890625 0 
L 79.890625 32.71875 
Q 79.890625 40.578125 77.09375 44.375 
Q 74.3125 48.1875 68.609375 48.1875 
Q 61.625 48.1875 57.5625 43.546875 
Q 53.515625 38.921875 53.515625 30.90625 
L 53.515625 0 
L 44.484375 0 
L 44.484375 32.71875 
Q 44.484375 40.625 41.703125 44.40625 
Q 38.921875 48.1875 33.109375 48.1875 
Q 26.21875 48.1875 22.15625 43.53125 
Q 18.109375 38.875 18.109375 30.90625 
L 18.109375 0 
L 9.078125 0 
L 9.078125 54.6875 
L 18.109375 54.6875 
L 18.109375 46.1875 
Q 21.1875 51.21875 25.484375 53.609375 
Q 29.78125 56 35.6875 56 
Q 41.65625 56 45.828125 52.96875 
Q 50 49.953125 52 44.1875 
z
" id="DejaVuSans-109"/>
      <path d="M 34.28125 27.484375 
Q 23.390625 27.484375 19.1875 25 
Q 14.984375 22.515625 14.984375 16.5 
Q 14.984375 11.71875 18.140625 8.90625 
Q 21.296875 6.109375 26.703125 6.109375 
Q 34.1875 6.109375 38.703125 11.40625 
Q 43.21875 16.703125 43.21875 25.484375 
L 43.21875 27.484375 
z
M 52.203125 31.203125 
L 52.203125 0 
L 43.21875 0 
L 43.21875 8.296875 
Q 40.140625 3.328125 35.546875 0.953125 
Q 30.953125 -1.421875 24.3125 -1.421875 
Q 15.921875 -1.421875 10.953125 3.296875 
Q 6 8.015625 6 15.921875 
Q 6 25.140625 12.171875 29.828125 
Q 18.359375 34.515625 30.609375 34.515625 
L 43.21875 34.515625 
L 43.21875 35.40625 
Q 43.21875 41.609375 39.140625 45 
Q 35.0625 48.390625 27.6875 48.390625 
Q 23 48.390625 18.546875 47.265625 
Q 14.109375 46.140625 10.015625 43.890625 
L 10.015625 52.203125 
Q 14.9375 54.109375 19.578125 55.046875 
Q 24.21875 56 28.609375 56 
Q 40.484375 56 46.34375 49.84375 
Q 52.203125 43.703125 52.203125 31.203125 
z
" id="DejaVuSans-97"/>
      <path d="M 45.40625 27.984375 
Q 45.40625 37.75 41.375 43.109375 
Q 37.359375 48.484375 30.078125 48.484375 
Q 22.859375 48.484375 18.828125 43.109375 
Q 14.796875 37.75 14.796875 27.984375 
Q 14.796875 18.265625 18.828125 12.890625 
Q 22.859375 7.515625 30.078125 7.515625 
Q 37.359375 7.515625 41.375 12.890625 
Q 45.40625 18.265625 45.40625 27.984375 
z
M 54.390625 6.78125 
Q 54.390625 -7.171875 48.1875 -13.984375 
Q 42 -20.796875 29.203125 -20.796875 
Q 24.46875 -20.796875 20.265625 -20.09375 
Q 16.0625 -19.390625 12.109375 -17.921875 
L 12.109375 -9.1875 
Q 16.0625 -11.328125 19.921875 -12.34375 
Q 23.78125 -13.375 27.78125 -13.375 
Q 36.625 -13.375 41.015625 -8.765625 
Q 45.40625 -4.15625 45.40625 5.171875 
L 45.40625 9.625 
Q 42.625 4.78125 38.28125 2.390625 
Q 33.9375 0 27.875 0 
Q 17.828125 0 11.671875 7.65625 
Q 5.515625 15.328125 5.515625 27.984375 
Q 5.515625 40.671875 11.671875 48.328125 
Q 17.828125 56 27.875 56 
Q 33.9375 56 38.28125 53.609375 
Q 42.625 51.21875 45.40625 46.390625 
L 45.40625 54.6875 
L 54.390625 54.6875 
z
" id="DejaVuSans-103"/>
     </defs>
     <g style="fill:#555555;" transform="translate(200.624063 337.38025)scale(0.12 -0.12)">
      <use xlink:href="#DejaVuSans-84"/>
      <use x="44.083984" xlink:href="#DejaVuSans-101"/>
      <use x="105.607422" xlink:href="#DejaVuSans-115"/>
      <use x="157.707031" xlink:href="#DejaVuSans-116"/>
      <use x="196.916016" xlink:href="#DejaVuSans-32"/>
      <use x="228.703125" xlink:href="#DejaVuSans-105"/>
      <use x="256.486328" xlink:href="#DejaVuSans-109"/>
      <use x="353.898438" xlink:href="#DejaVuSans-97"/>
      <use x="415.177734" xlink:href="#DejaVuSans-103"/>
      <use x="478.654297" xlink:href="#DejaVuSans-101"/>
      <use x="540.177734" xlink:href="#DejaVuSans-115"/>
     </g>
    </g>
   </g>
   <g id="matplotlib.axis_2">
    <g id="ytick_1">
     <g id="line2d_15">
      <path clip-path="url(#p760a625355)" d="M 57.6 269.189662 
L 414.72 269.189662 
" style="fill:none;stroke:#ffffff;stroke-linecap:square;stroke-width:0.8;"/>
     </g>
     <g id="line2d_16">
      <defs>
       <path d="M 0 0 
L -3.5 0 
" id="mcb971ef10d" style="stroke:#555555;stroke-width:0.8;"/>
      </defs>
      <g>
       <use style="fill:#555555;stroke:#555555;stroke-width:0.8;" x="57.6" xlink:href="#mcb971ef10d" y="269.189662"/>
      </g>
     </g>
     <g id="text_9">
      <!-- 1.0 -->
      <defs>
       <path d="M 10.6875 12.40625 
L 21 12.40625 
L 21 0 
L 10.6875 0 
z
" id="DejaVuSans-46"/>
      </defs>
      <g style="fill:#555555;" transform="translate(34.696875 272.988881)scale(0.1 -0.1)">
       <use xlink:href="#DejaVuSans-49"/>
       <use x="63.623047" xlink:href="#DejaVuSans-46"/>
       <use x="95.410156" xlink:href="#DejaVuSans-48"/>
      </g>
     </g>
    </g>
    <g id="ytick_2">
     <g id="line2d_17">
      <path clip-path="url(#p760a625355)" d="M 57.6 224.393213 
L 414.72 224.393213 
" style="fill:none;stroke:#ffffff;stroke-linecap:square;stroke-width:0.8;"/>
     </g>
     <g id="line2d_18">
      <g>
       <use style="fill:#555555;stroke:#555555;stroke-width:0.8;" x="57.6" xlink:href="#mcb971ef10d" y="224.393213"/>
      </g>
     </g>
     <g id="text_10">
      <!-- 1.5 -->
      <g style="fill:#555555;" transform="translate(34.696875 228.192431)scale(0.1 -0.1)">
       <use xlink:href="#DejaVuSans-49"/>
       <use x="63.623047" xlink:href="#DejaVuSans-46"/>
       <use x="95.410156" xlink:href="#DejaVuSans-53"/>
      </g>
     </g>
    </g>
    <g id="ytick_3">
     <g id="line2d_19">
      <path clip-path="url(#p760a625355)" d="M 57.6 179.596763 
L 414.72 179.596763 
" style="fill:none;stroke:#ffffff;stroke-linecap:square;stroke-width:0.8;"/>
     </g>
     <g id="line2d_20">
      <g>
       <use style="fill:#555555;stroke:#555555;stroke-width:0.8;" x="57.6" xlink:href="#mcb971ef10d" y="179.596763"/>
      </g>
     </g>
     <g id="text_11">
      <!-- 2.0 -->
      <g style="fill:#555555;" transform="translate(34.696875 183.395982)scale(0.1 -0.1)">
       <use xlink:href="#DejaVuSans-50"/>
       <use x="63.623047" xlink:href="#DejaVuSans-46"/>
       <use x="95.410156" xlink:href="#DejaVuSans-48"/>
      </g>
     </g>
    </g>
    <g id="ytick_4">
     <g id="line2d_21">
      <path clip-path="url(#p760a625355)" d="M 57.6 134.800314 
L 414.72 134.800314 
" style="fill:none;stroke:#ffffff;stroke-linecap:square;stroke-width:0.8;"/>
     </g>
     <g id="line2d_22">
      <g>
       <use style="fill:#555555;stroke:#555555;stroke-width:0.8;" x="57.6" xlink:href="#mcb971ef10d" y="134.800314"/>
      </g>
     </g>
     <g id="text_12">
      <!-- 2.5 -->
      <g style="fill:#555555;" transform="translate(34.696875 138.599532)scale(0.1 -0.1)">
       <use xlink:href="#DejaVuSans-50"/>
       <use x="63.623047" xlink:href="#DejaVuSans-46"/>
       <use x="95.410156" xlink:href="#DejaVuSans-53"/>
      </g>
     </g>
    </g>
    <g id="ytick_5">
     <g id="line2d_23">
      <path clip-path="url(#p760a625355)" d="M 57.6 90.003864 
L 414.72 90.003864 
" style="fill:none;stroke:#ffffff;stroke-linecap:square;stroke-width:0.8;"/>
     </g>
     <g id="line2d_24">
      <g>
       <use style="fill:#555555;stroke:#555555;stroke-width:0.8;" x="57.6" xlink:href="#mcb971ef10d" y="90.003864"/>
      </g>
     </g>
     <g id="text_13">
      <!-- 3.0 -->
      <g style="fill:#555555;" transform="translate(34.696875 93.803083)scale(0.1 -0.1)">
       <use xlink:href="#DejaVuSans-51"/>
       <use x="63.623047" xlink:href="#DejaVuSans-46"/>
       <use x="95.410156" xlink:href="#DejaVuSans-48"/>
      </g>
     </g>
    </g>
    <g id="ytick_6">
     <g id="line2d_25">
      <path clip-path="url(#p760a625355)" d="M 57.6 45.207415 
L 414.72 45.207415 
" style="fill:none;stroke:#ffffff;stroke-linecap:square;stroke-width:0.8;"/>
     </g>
     <g id="line2d_26">
      <g>
       <use style="fill:#555555;stroke:#555555;stroke-width:0.8;" x="57.6" xlink:href="#mcb971ef10d" y="45.207415"/>
      </g>
     </g>
     <g id="text_14">
      <!-- 3.5 -->
      <g style="fill:#555555;" transform="translate(34.696875 49.006633)scale(0.1 -0.1)">
       <use xlink:href="#DejaVuSans-51"/>
       <use x="63.623047" xlink:href="#DejaVuSans-46"/>
       <use x="95.410156" xlink:href="#DejaVuSans-53"/>
      </g>
     </g>
    </g>
    <g id="text_15">
     <!-- Seconds -->
     <defs>
      <path d="M 53.515625 70.515625 
L 53.515625 60.890625 
Q 47.90625 63.578125 42.921875 64.890625 
Q 37.9375 66.21875 33.296875 66.21875 
Q 25.25 66.21875 20.875 63.09375 
Q 16.5 59.96875 16.5 54.203125 
Q 16.5 49.359375 19.40625 46.890625 
Q 22.3125 44.4375 30.421875 42.921875 
L 36.375 41.703125 
Q 47.40625 39.59375 52.65625 34.296875 
Q 57.90625 29 57.90625 20.125 
Q 57.90625 9.515625 50.796875 4.046875 
Q 43.703125 -1.421875 29.984375 -1.421875 
Q 24.8125 -1.421875 18.96875 -0.25 
Q 13.140625 0.921875 6.890625 3.21875 
L 6.890625 13.375 
Q 12.890625 10.015625 18.65625 8.296875 
Q 24.421875 6.59375 29.984375 6.59375 
Q 38.421875 6.59375 43.015625 9.90625 
Q 47.609375 13.234375 47.609375 19.390625 
Q 47.609375 24.75 44.3125 27.78125 
Q 41.015625 30.8125 33.5 32.328125 
L 27.484375 33.5 
Q 16.453125 35.6875 11.515625 40.375 
Q 6.59375 45.0625 6.59375 53.421875 
Q 6.59375 63.09375 13.40625 68.65625 
Q 20.21875 74.21875 32.171875 74.21875 
Q 37.3125 74.21875 42.625 73.28125 
Q 47.953125 72.359375 53.515625 70.515625 
z
" id="DejaVuSans-83"/>
      <path d="M 48.78125 52.59375 
L 48.78125 44.1875 
Q 44.96875 46.296875 41.140625 47.34375 
Q 37.3125 48.390625 33.40625 48.390625 
Q 24.65625 48.390625 19.8125 42.84375 
Q 14.984375 37.3125 14.984375 27.296875 
Q 14.984375 17.28125 19.8125 11.734375 
Q 24.65625 6.203125 33.40625 6.203125 
Q 37.3125 6.203125 41.140625 7.25 
Q 44.96875 8.296875 48.78125 10.40625 
L 48.78125 2.09375 
Q 45.015625 0.34375 40.984375 -0.53125 
Q 36.96875 -1.421875 32.421875 -1.421875 
Q 20.0625 -1.421875 12.78125 6.34375 
Q 5.515625 14.109375 5.515625 27.296875 
Q 5.515625 40.671875 12.859375 48.328125 
Q 20.21875 56 33.015625 56 
Q 37.15625 56 41.109375 55.140625 
Q 45.0625 54.296875 48.78125 52.59375 
z
" id="DejaVuSans-99"/>
      <path d="M 30.609375 48.390625 
Q 23.390625 48.390625 19.1875 42.75 
Q 14.984375 37.109375 14.984375 27.296875 
Q 14.984375 17.484375 19.15625 11.84375 
Q 23.34375 6.203125 30.609375 6.203125 
Q 37.796875 6.203125 41.984375 11.859375 
Q 46.1875 17.53125 46.1875 27.296875 
Q 46.1875 37.015625 41.984375 42.703125 
Q 37.796875 48.390625 30.609375 48.390625 
z
M 30.609375 56 
Q 42.328125 56 49.015625 48.375 
Q 55.71875 40.765625 55.71875 27.296875 
Q 55.71875 13.875 49.015625 6.21875 
Q 42.328125 -1.421875 30.609375 -1.421875 
Q 18.84375 -1.421875 12.171875 6.21875 
Q 5.515625 13.875 5.515625 27.296875 
Q 5.515625 40.765625 12.171875 48.375 
Q 18.84375 56 30.609375 56 
z
" id="DejaVuSans-111"/>
      <path d="M 54.890625 33.015625 
L 54.890625 0 
L 45.90625 0 
L 45.90625 32.71875 
Q 45.90625 40.484375 42.875 44.328125 
Q 39.84375 48.1875 33.796875 48.1875 
Q 26.515625 48.1875 22.3125 43.546875 
Q 18.109375 38.921875 18.109375 30.90625 
L 18.109375 0 
L 9.078125 0 
L 9.078125 54.6875 
L 18.109375 54.6875 
L 18.109375 46.1875 
Q 21.34375 51.125 25.703125 53.5625 
Q 30.078125 56 35.796875 56 
Q 45.21875 56 50.046875 50.171875 
Q 54.890625 44.34375 54.890625 33.015625 
z
" id="DejaVuSans-110"/>
      <path d="M 45.40625 46.390625 
L 45.40625 75.984375 
L 54.390625 75.984375 
L 54.390625 0 
L 45.40625 0 
L 45.40625 8.203125 
Q 42.578125 3.328125 38.25 0.953125 
Q 33.9375 -1.421875 27.875 -1.421875 
Q 17.96875 -1.421875 11.734375 6.484375 
Q 5.515625 14.40625 5.515625 27.296875 
Q 5.515625 40.1875 11.734375 48.09375 
Q 17.96875 56 27.875 56 
Q 33.9375 56 38.25 53.625 
Q 42.578125 51.265625 45.40625 46.390625 
z
M 14.796875 27.296875 
Q 14.796875 17.390625 18.875 11.75 
Q 22.953125 6.109375 30.078125 6.109375 
Q 37.203125 6.109375 41.296875 11.75 
Q 45.40625 17.390625 45.40625 27.296875 
Q 45.40625 37.203125 41.296875 42.84375 
Q 37.203125 48.484375 30.078125 48.484375 
Q 22.953125 48.484375 18.875 42.84375 
Q 14.796875 37.203125 14.796875 27.296875 
z
" id="DejaVuSans-100"/>
     </defs>
     <g style="fill:#555555;" transform="translate(28.20125 199.736437)rotate(-90)scale(0.12 -0.12)">
      <use xlink:href="#DejaVuSans-83"/>
      <use x="63.476562" xlink:href="#DejaVuSans-101"/>
      <use x="125" xlink:href="#DejaVuSans-99"/>
      <use x="179.980469" xlink:href="#DejaVuSans-111"/>
      <use x="241.162109" xlink:href="#DejaVuSans-110"/>
      <use x="304.541016" xlink:href="#DejaVuSans-100"/>
      <use x="368.017578" xlink:href="#DejaVuSans-115"/>
     </g>
    </g>
   </g>
   <g id="PathCollection_1">
    <defs>
     <path d="M 0 1.5 
C 0.397805 1.5 0.77937 1.341951 1.06066 1.06066 
C 1.341951 0.77937 1.5 0.397805 1.5 0 
C 1.5 -0.397805 1.341951 -0.77937 1.06066 -1.06066 
C 0.77937 -1.341951 0.397805 -1.5 0 -1.5 
C -0.397805 -1.5 -0.77937 -1.341951 -1.06066 -1.06066 
C -1.341951 -0.77937 -1.5 -0.397805 -1.5 0 
C -1.5 0.397805 -1.341951 0.77937 -1.06066 1.06066 
C -0.77937 1.341951 -0.397805 1.5 0 1.5 
z
" id="m1b1323caad" style="stroke:#e24a33;stroke-width:0.5;"/>
    </defs>
    <g clip-path="url(#p760a625355)">
     <use style="fill:#e24a33;stroke:#e24a33;stroke-width:0.5;" x="73.832727" xlink:href="#m1b1323caad" y="272.306061"/>
     <use style="fill:#e24a33;stroke:#e24a33;stroke-width:0.5;" x="79.430219" xlink:href="#m1b1323caad" y="265.55882"/>
     <use style="fill:#e24a33;stroke:#e24a33;stroke-width:0.5;" x="85.027712" xlink:href="#m1b1323caad" y="222.437041"/>
     <use style="fill:#e24a33;stroke:#e24a33;stroke-width:0.5;" x="90.625204" xlink:href="#m1b1323caad" y="287.495955"/>
     <use style="fill:#e24a33;stroke:#e24a33;stroke-width:0.5;" x="96.222696" xlink:href="#m1b1323caad" y="289.460996"/>
     <use style="fill:#e24a33;stroke:#e24a33;stroke-width:0.5;" x="101.820188" xlink:href="#m1b1323caad" y="275.242917"/>
     <use style="fill:#e24a33;stroke:#e24a33;stroke-width:0.5;" x="107.41768" xlink:href="#m1b1323caad" y="272.966137"/>
     <use style="fill:#e24a33;stroke:#e24a33;stroke-width:0.5;" x="113.015172" xlink:href="#m1b1323caad" y="279.993446"/>
     <use style="fill:#e24a33;stroke:#e24a33;stroke-width:0.5;" x="118.612665" xlink:href="#m1b1323caad" y="285.044649"/>
     <use style="fill:#e24a33;stroke:#e24a33;stroke-width:0.5;" x="124.210157" xlink:href="#m1b1323caad" y="279.728161"/>
     <use style="fill:#e24a33;stroke:#e24a33;stroke-width:0.5;" x="129.807649" xlink:href="#m1b1323caad" y="278.64122"/>
     <use style="fill:#e24a33;stroke:#e24a33;stroke-width:0.5;" x="135.405141" xlink:href="#m1b1323caad" y="273.698604"/>
     <use style="fill:#e24a33;stroke:#e24a33;stroke-width:0.5;" x="141.002633" xlink:href="#m1b1323caad" y="283.683643"/>
     <use style="fill:#e24a33;stroke:#e24a33;stroke-width:0.5;" x="146.600125" xlink:href="#m1b1323caad" y="270.592552"/>
     <use style="fill:#e24a33;stroke:#e24a33;stroke-width:0.5;" x="152.197618" xlink:href="#m1b1323caad" y="279.29601"/>
     <use style="fill:#e24a33;stroke:#e24a33;stroke-width:0.5;" x="157.79511" xlink:href="#m1b1323caad" y="280.820523"/>
     <use style="fill:#e24a33;stroke:#e24a33;stroke-width:0.5;" x="163.392602" xlink:href="#m1b1323caad" y="268.758227"/>
     <use style="fill:#e24a33;stroke:#e24a33;stroke-width:0.5;" x="168.990094" xlink:href="#m1b1323caad" y="277.453532"/>
     <use style="fill:#e24a33;stroke:#e24a33;stroke-width:0.5;" x="174.587586" xlink:href="#m1b1323caad" y="286.557066"/>
     <use style="fill:#e24a33;stroke:#e24a33;stroke-width:0.5;" x="180.185078" xlink:href="#m1b1323caad" y="285.574367"/>
     <use style="fill:#e24a33;stroke:#e24a33;stroke-width:0.5;" x="185.782571" xlink:href="#m1b1323caad" y="291.612794"/>
     <use style="fill:#e24a33;stroke:#e24a33;stroke-width:0.5;" x="191.380063" xlink:href="#m1b1323caad" y="289.625757"/>
     <use style="fill:#e24a33;stroke:#e24a33;stroke-width:0.5;" x="196.977555" xlink:href="#m1b1323caad" y="295.488"/>
     <use style="fill:#e24a33;stroke:#e24a33;stroke-width:0.5;" x="202.575047" xlink:href="#m1b1323caad" y="284.316169"/>
     <use style="fill:#e24a33;stroke:#e24a33;stroke-width:0.5;" x="208.172539" xlink:href="#m1b1323caad" y="283.827126"/>
     <use style="fill:#e24a33;stroke:#e24a33;stroke-width:0.5;" x="213.770031" xlink:href="#m1b1323caad" y="280.128373"/>
     <use style="fill:#e24a33;stroke:#e24a33;stroke-width:0.5;" x="219.367524" xlink:href="#m1b1323caad" y="284.841855"/>
     <use style="fill:#e24a33;stroke:#e24a33;stroke-width:0.5;" x="224.965016" xlink:href="#m1b1323caad" y="280.30711"/>
     <use style="fill:#e24a33;stroke:#e24a33;stroke-width:0.5;" x="230.562508" xlink:href="#m1b1323caad" y="282.001939"/>
     <use style="fill:#e24a33;stroke:#e24a33;stroke-width:0.5;" x="236.16" xlink:href="#m1b1323caad" y="285.168108"/>
     <use style="fill:#e24a33;stroke:#e24a33;stroke-width:0.5;" x="241.757492" xlink:href="#m1b1323caad" y="268.197913"/>
     <use style="fill:#e24a33;stroke:#e24a33;stroke-width:0.5;" x="247.354984" xlink:href="#m1b1323caad" y="289.367416"/>
     <use style="fill:#e24a33;stroke:#e24a33;stroke-width:0.5;" x="252.952476" xlink:href="#m1b1323caad" y="291.24273"/>
     <use style="fill:#e24a33;stroke:#e24a33;stroke-width:0.5;" x="258.549969" xlink:href="#m1b1323caad" y="285.827377"/>
     <use style="fill:#e24a33;stroke:#e24a33;stroke-width:0.5;" x="264.147461" xlink:href="#m1b1323caad" y="282.126518"/>
     <use style="fill:#e24a33;stroke:#e24a33;stroke-width:0.5;" x="269.744953" xlink:href="#m1b1323caad" y="277.895583"/>
     <use style="fill:#e24a33;stroke:#e24a33;stroke-width:0.5;" x="275.342445" xlink:href="#m1b1323caad" y="276.344013"/>
     <use style="fill:#e24a33;stroke:#e24a33;stroke-width:0.5;" x="280.939937" xlink:href="#m1b1323caad" y="264.772463"/>
     <use style="fill:#e24a33;stroke:#e24a33;stroke-width:0.5;" x="286.537429" xlink:href="#m1b1323caad" y="273.500424"/>
     <use style="fill:#e24a33;stroke:#e24a33;stroke-width:0.5;" x="292.134922" xlink:href="#m1b1323caad" y="285.359926"/>
     <use style="fill:#e24a33;stroke:#e24a33;stroke-width:0.5;" x="297.732414" xlink:href="#m1b1323caad" y="263.909415"/>
     <use style="fill:#e24a33;stroke:#e24a33;stroke-width:0.5;" x="303.329906" xlink:href="#m1b1323caad" y="277.119216"/>
     <use style="fill:#e24a33;stroke:#e24a33;stroke-width:0.5;" x="308.927398" xlink:href="#m1b1323caad" y="275.503677"/>
     <use style="fill:#e24a33;stroke:#e24a33;stroke-width:0.5;" x="314.52489" xlink:href="#m1b1323caad" y="274.02853"/>
     <use style="fill:#e24a33;stroke:#e24a33;stroke-width:0.5;" x="320.122382" xlink:href="#m1b1323caad" y="267.75304"/>
     <use style="fill:#e24a33;stroke:#e24a33;stroke-width:0.5;" x="325.719875" xlink:href="#m1b1323caad" y="257.652247"/>
     <use style="fill:#e24a33;stroke:#e24a33;stroke-width:0.5;" x="331.317367" xlink:href="#m1b1323caad" y="275.962572"/>
     <use style="fill:#e24a33;stroke:#e24a33;stroke-width:0.5;" x="336.914859" xlink:href="#m1b1323caad" y="277.176421"/>
     <use style="fill:#e24a33;stroke:#e24a33;stroke-width:0.5;" x="342.512351" xlink:href="#m1b1323caad" y="256.439562"/>
     <use style="fill:#e24a33;stroke:#e24a33;stroke-width:0.5;" x="348.109843" xlink:href="#m1b1323caad" y="276.776971"/>
     <use style="fill:#e24a33;stroke:#e24a33;stroke-width:0.5;" x="353.707335" xlink:href="#m1b1323caad" y="216.237795"/>
     <use style="fill:#e24a33;stroke:#e24a33;stroke-width:0.5;" x="359.304828" xlink:href="#m1b1323caad" y="200.46492"/>
     <use style="fill:#e24a33;stroke:#e24a33;stroke-width:0.5;" x="364.90232" xlink:href="#m1b1323caad" y="254.392992"/>
     <use style="fill:#e24a33;stroke:#e24a33;stroke-width:0.5;" x="370.499812" xlink:href="#m1b1323caad" y="281.388676"/>
     <use style="fill:#e24a33;stroke:#e24a33;stroke-width:0.5;" x="376.097304" xlink:href="#m1b1323caad" y="274.357291"/>
     <use style="fill:#e24a33;stroke:#e24a33;stroke-width:0.5;" x="381.694796" xlink:href="#m1b1323caad" y="264.321184"/>
     <use style="fill:#e24a33;stroke:#e24a33;stroke-width:0.5;" x="387.292288" xlink:href="#m1b1323caad" y="272.412856"/>
     <use style="fill:#e24a33;stroke:#e24a33;stroke-width:0.5;" x="392.889781" xlink:href="#m1b1323caad" y="274.176537"/>
     <use style="fill:#e24a33;stroke:#e24a33;stroke-width:0.5;" x="398.487273" xlink:href="#m1b1323caad" y="276.018388"/>
    </g>
   </g>
   <g id="PathCollection_2">
    <defs>
     <path d="M -3 0 
L 3 0 
M 0 3 
L 0 -3 
" id="mcfa6447baf" style="stroke:#988ed5;stroke-width:1.5;"/>
    </defs>
    <g clip-path="url(#p760a625355)">
     <use style="fill:#988ed5;stroke:#988ed5;stroke-width:1.5;" x="73.832727" xlink:href="#mcfa6447baf" y="70.75801"/>
     <use style="fill:#988ed5;stroke:#988ed5;stroke-width:1.5;" x="79.430219" xlink:href="#mcfa6447baf" y="53.568"/>
     <use style="fill:#988ed5;stroke:#988ed5;stroke-width:1.5;" x="85.027712" xlink:href="#mcfa6447baf" y="69.33308"/>
     <use style="fill:#988ed5;stroke:#988ed5;stroke-width:1.5;" x="90.625204" xlink:href="#mcfa6447baf" y="71.867753"/>
     <use style="fill:#988ed5;stroke:#988ed5;stroke-width:1.5;" x="96.222696" xlink:href="#mcfa6447baf" y="60.375681"/>
     <use style="fill:#988ed5;stroke:#988ed5;stroke-width:1.5;" x="101.820188" xlink:href="#mcfa6447baf" y="68.567231"/>
     <use style="fill:#988ed5;stroke:#988ed5;stroke-width:1.5;" x="107.41768" xlink:href="#mcfa6447baf" y="69.533903"/>
     <use style="fill:#988ed5;stroke:#988ed5;stroke-width:1.5;" x="113.015172" xlink:href="#mcfa6447baf" y="73.488936"/>
     <use style="fill:#988ed5;stroke:#988ed5;stroke-width:1.5;" x="118.612665" xlink:href="#mcfa6447baf" y="64.381818"/>
     <use style="fill:#988ed5;stroke:#988ed5;stroke-width:1.5;" x="124.210157" xlink:href="#mcfa6447baf" y="72.747734"/>
     <use style="fill:#988ed5;stroke:#988ed5;stroke-width:1.5;" x="129.807649" xlink:href="#mcfa6447baf" y="70.248307"/>
     <use style="fill:#988ed5;stroke:#988ed5;stroke-width:1.5;" x="135.405141" xlink:href="#mcfa6447baf" y="67.273393"/>
     <use style="fill:#988ed5;stroke:#988ed5;stroke-width:1.5;" x="141.002633" xlink:href="#mcfa6447baf" y="73.180558"/>
     <use style="fill:#988ed5;stroke:#988ed5;stroke-width:1.5;" x="146.600125" xlink:href="#mcfa6447baf" y="76.370423"/>
     <use style="fill:#988ed5;stroke:#988ed5;stroke-width:1.5;" x="152.197618" xlink:href="#mcfa6447baf" y="66.969754"/>
     <use style="fill:#988ed5;stroke:#988ed5;stroke-width:1.5;" x="157.79511" xlink:href="#mcfa6447baf" y="69.651941"/>
     <use style="fill:#988ed5;stroke:#988ed5;stroke-width:1.5;" x="163.392602" xlink:href="#mcfa6447baf" y="64.530811"/>
     <use style="fill:#988ed5;stroke:#988ed5;stroke-width:1.5;" x="168.990094" xlink:href="#mcfa6447baf" y="70.978543"/>
     <use style="fill:#988ed5;stroke:#988ed5;stroke-width:1.5;" x="174.587586" xlink:href="#mcfa6447baf" y="65.255537"/>
     <use style="fill:#988ed5;stroke:#988ed5;stroke-width:1.5;" x="180.185078" xlink:href="#mcfa6447baf" y="70.071048"/>
     <use style="fill:#988ed5;stroke:#988ed5;stroke-width:1.5;" x="185.782571" xlink:href="#mcfa6447baf" y="60.52978"/>
     <use style="fill:#988ed5;stroke:#988ed5;stroke-width:1.5;" x="191.380063" xlink:href="#mcfa6447baf" y="63.717836"/>
     <use style="fill:#988ed5;stroke:#988ed5;stroke-width:1.5;" x="196.977555" xlink:href="#mcfa6447baf" y="60.558665"/>
     <use style="fill:#988ed5;stroke:#988ed5;stroke-width:1.5;" x="202.575047" xlink:href="#mcfa6447baf" y="54.956242"/>
     <use style="fill:#988ed5;stroke:#988ed5;stroke-width:1.5;" x="208.172539" xlink:href="#mcfa6447baf" y="67.282361"/>
     <use style="fill:#988ed5;stroke:#988ed5;stroke-width:1.5;" x="213.770031" xlink:href="#mcfa6447baf" y="67.530122"/>
     <use style="fill:#988ed5;stroke:#988ed5;stroke-width:1.5;" x="219.367524" xlink:href="#mcfa6447baf" y="70.085535"/>
     <use style="fill:#988ed5;stroke:#988ed5;stroke-width:1.5;" x="224.965016" xlink:href="#mcfa6447baf" y="64.796418"/>
     <use style="fill:#988ed5;stroke:#988ed5;stroke-width:1.5;" x="230.562508" xlink:href="#mcfa6447baf" y="70.333564"/>
     <use style="fill:#988ed5;stroke:#988ed5;stroke-width:1.5;" x="236.16" xlink:href="#mcfa6447baf" y="69.122447"/>
     <use style="fill:#988ed5;stroke:#988ed5;stroke-width:1.5;" x="241.757492" xlink:href="#mcfa6447baf" y="58.586089"/>
     <use style="fill:#988ed5;stroke:#988ed5;stroke-width:1.5;" x="247.354984" xlink:href="#mcfa6447baf" y="66.007705"/>
     <use style="fill:#988ed5;stroke:#988ed5;stroke-width:1.5;" x="252.952476" xlink:href="#mcfa6447baf" y="59.580669"/>
     <use style="fill:#988ed5;stroke:#988ed5;stroke-width:1.5;" x="258.549969" xlink:href="#mcfa6447baf" y="57.568332"/>
     <use style="fill:#988ed5;stroke:#988ed5;stroke-width:1.5;" x="264.147461" xlink:href="#mcfa6447baf" y="55.868477"/>
     <use style="fill:#988ed5;stroke:#988ed5;stroke-width:1.5;" x="269.744953" xlink:href="#mcfa6447baf" y="67.795845"/>
     <use style="fill:#988ed5;stroke:#988ed5;stroke-width:1.5;" x="275.342445" xlink:href="#mcfa6447baf" y="74.071281"/>
     <use style="fill:#988ed5;stroke:#988ed5;stroke-width:1.5;" x="280.939937" xlink:href="#mcfa6447baf" y="72.030498"/>
     <use style="fill:#988ed5;stroke:#988ed5;stroke-width:1.5;" x="286.537429" xlink:href="#mcfa6447baf" y="64.959603"/>
     <use style="fill:#988ed5;stroke:#988ed5;stroke-width:1.5;" x="292.134922" xlink:href="#mcfa6447baf" y="64.325966"/>
     <use style="fill:#988ed5;stroke:#988ed5;stroke-width:1.5;" x="297.732414" xlink:href="#mcfa6447baf" y="61.598131"/>
     <use style="fill:#988ed5;stroke:#988ed5;stroke-width:1.5;" x="303.329906" xlink:href="#mcfa6447baf" y="66.907209"/>
     <use style="fill:#988ed5;stroke:#988ed5;stroke-width:1.5;" x="308.927398" xlink:href="#mcfa6447baf" y="66.442052"/>
     <use style="fill:#988ed5;stroke:#988ed5;stroke-width:1.5;" x="314.52489" xlink:href="#mcfa6447baf" y="68.84444"/>
     <use style="fill:#988ed5;stroke:#988ed5;stroke-width:1.5;" x="320.122382" xlink:href="#mcfa6447baf" y="69.559974"/>
     <use style="fill:#988ed5;stroke:#988ed5;stroke-width:1.5;" x="325.719875" xlink:href="#mcfa6447baf" y="72.832453"/>
     <use style="fill:#988ed5;stroke:#988ed5;stroke-width:1.5;" x="331.317367" xlink:href="#mcfa6447baf" y="62.886916"/>
     <use style="fill:#988ed5;stroke:#988ed5;stroke-width:1.5;" x="336.914859" xlink:href="#mcfa6447baf" y="70.430951"/>
     <use style="fill:#988ed5;stroke:#988ed5;stroke-width:1.5;" x="342.512351" xlink:href="#mcfa6447baf" y="71.100649"/>
     <use style="fill:#988ed5;stroke:#988ed5;stroke-width:1.5;" x="348.109843" xlink:href="#mcfa6447baf" y="70.952508"/>
     <use style="fill:#988ed5;stroke:#988ed5;stroke-width:1.5;" x="353.707335" xlink:href="#mcfa6447baf" y="67.93664"/>
     <use style="fill:#988ed5;stroke:#988ed5;stroke-width:1.5;" x="359.304828" xlink:href="#mcfa6447baf" y="73.685727"/>
     <use style="fill:#988ed5;stroke:#988ed5;stroke-width:1.5;" x="364.90232" xlink:href="#mcfa6447baf" y="73.996068"/>
     <use style="fill:#988ed5;stroke:#988ed5;stroke-width:1.5;" x="370.499812" xlink:href="#mcfa6447baf" y="67.841806"/>
     <use style="fill:#988ed5;stroke:#988ed5;stroke-width:1.5;" x="376.097304" xlink:href="#mcfa6447baf" y="60.036518"/>
     <use style="fill:#988ed5;stroke:#988ed5;stroke-width:1.5;" x="381.694796" xlink:href="#mcfa6447baf" y="69.340328"/>
     <use style="fill:#988ed5;stroke:#988ed5;stroke-width:1.5;" x="387.292288" xlink:href="#mcfa6447baf" y="69.069489"/>
     <use style="fill:#988ed5;stroke:#988ed5;stroke-width:1.5;" x="392.889781" xlink:href="#mcfa6447baf" y="71.836476"/>
     <use style="fill:#988ed5;stroke:#988ed5;stroke-width:1.5;" x="398.487273" xlink:href="#mcfa6447baf" y="63.397506"/>
    </g>
   </g>
   <g id="PathCollection_3">
    <defs>
     <path d="M -3 3 
L 3 -3 
M -3 -3 
L 3 3 
" id="m2882a1b7bf" style="stroke:#3489bc;stroke-width:1.5;"/>
    </defs>
    <g clip-path="url(#p760a625355)">
     <use style="fill:#3489bc;stroke:#3489bc;stroke-width:1.5;" x="73.832727" xlink:href="#m2882a1b7bf" y="275.063014"/>
     <use style="fill:#3489bc;stroke:#3489bc;stroke-width:1.5;" x="79.430219" xlink:href="#m2882a1b7bf" y="275.570907"/>
     <use style="fill:#3489bc;stroke:#3489bc;stroke-width:1.5;" x="85.027712" xlink:href="#m2882a1b7bf" y="278.729191"/>
     <use style="fill:#3489bc;stroke:#3489bc;stroke-width:1.5;" x="90.625204" xlink:href="#m2882a1b7bf" y="280.885746"/>
     <use style="fill:#3489bc;stroke:#3489bc;stroke-width:1.5;" x="96.222696" xlink:href="#m2882a1b7bf" y="278.025582"/>
     <use style="fill:#3489bc;stroke:#3489bc;stroke-width:1.5;" x="101.820188" xlink:href="#m2882a1b7bf" y="284.765746"/>
     <use style="fill:#3489bc;stroke:#3489bc;stroke-width:1.5;" x="107.41768" xlink:href="#m2882a1b7bf" y="280.161656"/>
     <use style="fill:#3489bc;stroke:#3489bc;stroke-width:1.5;" x="113.015172" xlink:href="#m2882a1b7bf" y="280.257834"/>
     <use style="fill:#3489bc;stroke:#3489bc;stroke-width:1.5;" x="118.612665" xlink:href="#m2882a1b7bf" y="278.881634"/>
     <use style="fill:#3489bc;stroke:#3489bc;stroke-width:1.5;" x="124.210157" xlink:href="#m2882a1b7bf" y="278.562378"/>
     <use style="fill:#3489bc;stroke:#3489bc;stroke-width:1.5;" x="129.807649" xlink:href="#m2882a1b7bf" y="281.379627"/>
     <use style="fill:#3489bc;stroke:#3489bc;stroke-width:1.5;" x="135.405141" xlink:href="#m2882a1b7bf" y="282.757512"/>
     <use style="fill:#3489bc;stroke:#3489bc;stroke-width:1.5;" x="141.002633" xlink:href="#m2882a1b7bf" y="281.336174"/>
     <use style="fill:#3489bc;stroke:#3489bc;stroke-width:1.5;" x="146.600125" xlink:href="#m2882a1b7bf" y="280.327134"/>
     <use style="fill:#3489bc;stroke:#3489bc;stroke-width:1.5;" x="152.197618" xlink:href="#m2882a1b7bf" y="277.231108"/>
     <use style="fill:#3489bc;stroke:#3489bc;stroke-width:1.5;" x="157.79511" xlink:href="#m2882a1b7bf" y="281.636445"/>
     <use style="fill:#3489bc;stroke:#3489bc;stroke-width:1.5;" x="163.392602" xlink:href="#m2882a1b7bf" y="276.473421"/>
     <use style="fill:#3489bc;stroke:#3489bc;stroke-width:1.5;" x="168.990094" xlink:href="#m2882a1b7bf" y="269.707778"/>
     <use style="fill:#3489bc;stroke:#3489bc;stroke-width:1.5;" x="174.587586" xlink:href="#m2882a1b7bf" y="283.536979"/>
     <use style="fill:#3489bc;stroke:#3489bc;stroke-width:1.5;" x="180.185078" xlink:href="#m2882a1b7bf" y="279.719569"/>
     <use style="fill:#3489bc;stroke:#3489bc;stroke-width:1.5;" x="185.782571" xlink:href="#m2882a1b7bf" y="282.901775"/>
     <use style="fill:#3489bc;stroke:#3489bc;stroke-width:1.5;" x="191.380063" xlink:href="#m2882a1b7bf" y="276.16971"/>
     <use style="fill:#3489bc;stroke:#3489bc;stroke-width:1.5;" x="196.977555" xlink:href="#m2882a1b7bf" y="277.862622"/>
     <use style="fill:#3489bc;stroke:#3489bc;stroke-width:1.5;" x="202.575047" xlink:href="#m2882a1b7bf" y="280.707044"/>
     <use style="fill:#3489bc;stroke:#3489bc;stroke-width:1.5;" x="208.172539" xlink:href="#m2882a1b7bf" y="274.503551"/>
     <use style="fill:#3489bc;stroke:#3489bc;stroke-width:1.5;" x="213.770031" xlink:href="#m2882a1b7bf" y="278.90543"/>
     <use style="fill:#3489bc;stroke:#3489bc;stroke-width:1.5;" x="219.367524" xlink:href="#m2882a1b7bf" y="282.787803"/>
     <use style="fill:#3489bc;stroke:#3489bc;stroke-width:1.5;" x="224.965016" xlink:href="#m2882a1b7bf" y="283.02432"/>
     <use style="fill:#3489bc;stroke:#3489bc;stroke-width:1.5;" x="230.562508" xlink:href="#m2882a1b7bf" y="280.245211"/>
     <use style="fill:#3489bc;stroke:#3489bc;stroke-width:1.5;" x="236.16" xlink:href="#m2882a1b7bf" y="276.406504"/>
     <use style="fill:#3489bc;stroke:#3489bc;stroke-width:1.5;" x="241.757492" xlink:href="#m2882a1b7bf" y="280.289649"/>
     <use style="fill:#3489bc;stroke:#3489bc;stroke-width:1.5;" x="247.354984" xlink:href="#m2882a1b7bf" y="279.589292"/>
     <use style="fill:#3489bc;stroke:#3489bc;stroke-width:1.5;" x="252.952476" xlink:href="#m2882a1b7bf" y="277.693067"/>
     <use style="fill:#3489bc;stroke:#3489bc;stroke-width:1.5;" x="258.549969" xlink:href="#m2882a1b7bf" y="276.522662"/>
     <use style="fill:#3489bc;stroke:#3489bc;stroke-width:1.5;" x="264.147461" xlink:href="#m2882a1b7bf" y="282.856118"/>
     <use style="fill:#3489bc;stroke:#3489bc;stroke-width:1.5;" x="269.744953" xlink:href="#m2882a1b7bf" y="280.128865"/>
     <use style="fill:#3489bc;stroke:#3489bc;stroke-width:1.5;" x="275.342445" xlink:href="#m2882a1b7bf" y="274.406925"/>
     <use style="fill:#3489bc;stroke:#3489bc;stroke-width:1.5;" x="280.939937" xlink:href="#m2882a1b7bf" y="283.968853"/>
     <use style="fill:#3489bc;stroke:#3489bc;stroke-width:1.5;" x="286.537429" xlink:href="#m2882a1b7bf" y="270.545238"/>
     <use style="fill:#3489bc;stroke:#3489bc;stroke-width:1.5;" x="292.134922" xlink:href="#m2882a1b7bf" y="278.823801"/>
     <use style="fill:#3489bc;stroke:#3489bc;stroke-width:1.5;" x="297.732414" xlink:href="#m2882a1b7bf" y="276.797712"/>
     <use style="fill:#3489bc;stroke:#3489bc;stroke-width:1.5;" x="303.329906" xlink:href="#m2882a1b7bf" y="282.546225"/>
     <use style="fill:#3489bc;stroke:#3489bc;stroke-width:1.5;" x="308.927398" xlink:href="#m2882a1b7bf" y="277.541521"/>
     <use style="fill:#3489bc;stroke:#3489bc;stroke-width:1.5;" x="314.52489" xlink:href="#m2882a1b7bf" y="280.591389"/>
     <use style="fill:#3489bc;stroke:#3489bc;stroke-width:1.5;" x="320.122382" xlink:href="#m2882a1b7bf" y="276.893746"/>
     <use style="fill:#3489bc;stroke:#3489bc;stroke-width:1.5;" x="325.719875" xlink:href="#m2882a1b7bf" y="282.311626"/>
     <use style="fill:#3489bc;stroke:#3489bc;stroke-width:1.5;" x="331.317367" xlink:href="#m2882a1b7bf" y="276.057719"/>
     <use style="fill:#3489bc;stroke:#3489bc;stroke-width:1.5;" x="336.914859" xlink:href="#m2882a1b7bf" y="278.905116"/>
     <use style="fill:#3489bc;stroke:#3489bc;stroke-width:1.5;" x="342.512351" xlink:href="#m2882a1b7bf" y="281.999036"/>
     <use style="fill:#3489bc;stroke:#3489bc;stroke-width:1.5;" x="348.109843" xlink:href="#m2882a1b7bf" y="278.388971"/>
     <use style="fill:#3489bc;stroke:#3489bc;stroke-width:1.5;" x="353.707335" xlink:href="#m2882a1b7bf" y="278.767"/>
     <use style="fill:#3489bc;stroke:#3489bc;stroke-width:1.5;" x="359.304828" xlink:href="#m2882a1b7bf" y="278.146766"/>
     <use style="fill:#3489bc;stroke:#3489bc;stroke-width:1.5;" x="364.90232" xlink:href="#m2882a1b7bf" y="279.691876"/>
     <use style="fill:#3489bc;stroke:#3489bc;stroke-width:1.5;" x="370.499812" xlink:href="#m2882a1b7bf" y="273.363267"/>
     <use style="fill:#3489bc;stroke:#3489bc;stroke-width:1.5;" x="376.097304" xlink:href="#m2882a1b7bf" y="266.728106"/>
     <use style="fill:#3489bc;stroke:#3489bc;stroke-width:1.5;" x="381.694796" xlink:href="#m2882a1b7bf" y="273.517581"/>
     <use style="fill:#3489bc;stroke:#3489bc;stroke-width:1.5;" x="387.292288" xlink:href="#m2882a1b7bf" y="274.309529"/>
     <use style="fill:#3489bc;stroke:#3489bc;stroke-width:1.5;" x="392.889781" xlink:href="#m2882a1b7bf" y="270.883774"/>
     <use style="fill:#3489bc;stroke:#3489bc;stroke-width:1.5;" x="398.487273" xlink:href="#m2882a1b7bf" y="272.432423"/>
    </g>
   </g>
   <g id="patch_3">
    <path d="M 57.6 307.584 
L 57.6 41.472 
" style="fill:none;stroke:#ffffff;stroke-linecap:square;stroke-linejoin:miter;"/>
   </g>
   <g id="patch_4">
    <path d="M 414.72 307.584 
L 414.72 41.472 
" style="fill:none;stroke:#ffffff;stroke-linecap:square;stroke-linejoin:miter;"/>
   </g>
   <g id="patch_5">
    <path d="M 57.6 307.584 
L 414.72 307.584 
" style="fill:none;stroke:#ffffff;stroke-linecap:square;stroke-linejoin:miter;"/>
   </g>
   <g id="patch_6">
    <path d="M 57.6 41.472 
L 414.72 41.472 
" style="fill:none;stroke:#ffffff;stroke-linecap:square;stroke-linejoin:miter;"/>
   </g>
   <g id="legend_1">
    <g id="patch_7">
     <path d="M 350.896 142.11935 
L 415.3485 142.11935 
Q 416.9485 142.11935 416.9485 140.51935 
L 416.9485 106.09185 
Q 416.9485 104.49185 415.3485 104.49185 
L 350.896 104.49185 
Q 349.296 104.49185 349.296 106.09185 
L 349.296 140.51935 
Q 349.296 142.11935 350.896 142.11935 
z
" style="fill:#454545;opacity:0.5;stroke:#454545;stroke-linejoin:miter;stroke-width:0.5;"/>
    </g>
    <g id="patch_8">
     <path d="M 348.896 140.11935 
L 413.3485 140.11935 
Q 414.9485 140.11935 414.9485 138.51935 
L 414.9485 104.09185 
Q 414.9485 102.49185 413.3485 102.49185 
L 348.896 102.49185 
Q 347.296 102.49185 347.296 104.09185 
L 347.296 138.51935 
Q 347.296 140.11935 348.896 140.11935 
z
" style="fill:#e5e5e5;stroke:#cccccc;stroke-linejoin:miter;stroke-width:0.5;"/>
    </g>
    <g id="PathCollection_4">
     <g>
      <use style="fill:#e24a33;stroke:#e24a33;stroke-width:0.5;" x="358.496" xlink:href="#m1b1323caad" y="109.6706"/>
     </g>
    </g>
    <g id="text_16">
     <!-- HOG-SVM -->
     <defs>
      <path d="M 9.8125 72.90625 
L 19.671875 72.90625 
L 19.671875 43.015625 
L 55.515625 43.015625 
L 55.515625 72.90625 
L 65.375 72.90625 
L 65.375 0 
L 55.515625 0 
L 55.515625 34.71875 
L 19.671875 34.71875 
L 19.671875 0 
L 9.8125 0 
z
" id="DejaVuSans-72"/>
      <path d="M 39.40625 66.21875 
Q 28.65625 66.21875 22.328125 58.203125 
Q 16.015625 50.203125 16.015625 36.375 
Q 16.015625 22.609375 22.328125 14.59375 
Q 28.65625 6.59375 39.40625 6.59375 
Q 50.140625 6.59375 56.421875 14.59375 
Q 62.703125 22.609375 62.703125 36.375 
Q 62.703125 50.203125 56.421875 58.203125 
Q 50.140625 66.21875 39.40625 66.21875 
z
M 39.40625 74.21875 
Q 54.734375 74.21875 63.90625 63.9375 
Q 73.09375 53.65625 73.09375 36.375 
Q 73.09375 19.140625 63.90625 8.859375 
Q 54.734375 -1.421875 39.40625 -1.421875 
Q 24.03125 -1.421875 14.8125 8.828125 
Q 5.609375 19.09375 5.609375 36.375 
Q 5.609375 53.65625 14.8125 63.9375 
Q 24.03125 74.21875 39.40625 74.21875 
z
" id="DejaVuSans-79"/>
      <path d="M 59.515625 10.40625 
L 59.515625 29.984375 
L 43.40625 29.984375 
L 43.40625 38.09375 
L 69.28125 38.09375 
L 69.28125 6.78125 
Q 63.578125 2.734375 56.6875 0.65625 
Q 49.8125 -1.421875 42 -1.421875 
Q 24.90625 -1.421875 15.25 8.5625 
Q 5.609375 18.5625 5.609375 36.375 
Q 5.609375 54.25 15.25 64.234375 
Q 24.90625 74.21875 42 74.21875 
Q 49.125 74.21875 55.546875 72.453125 
Q 61.96875 70.703125 67.390625 67.28125 
L 67.390625 56.78125 
Q 61.921875 61.421875 55.765625 63.765625 
Q 49.609375 66.109375 42.828125 66.109375 
Q 29.4375 66.109375 22.71875 58.640625 
Q 16.015625 51.171875 16.015625 36.375 
Q 16.015625 21.625 22.71875 14.15625 
Q 29.4375 6.6875 42.828125 6.6875 
Q 48.046875 6.6875 52.140625 7.59375 
Q 56.25 8.5 59.515625 10.40625 
z
" id="DejaVuSans-71"/>
      <path d="M 4.890625 31.390625 
L 31.203125 31.390625 
L 31.203125 23.390625 
L 4.890625 23.390625 
z
" id="DejaVuSans-45"/>
      <path d="M 28.609375 0 
L 0.78125 72.90625 
L 11.078125 72.90625 
L 34.1875 11.53125 
L 57.328125 72.90625 
L 67.578125 72.90625 
L 39.796875 0 
z
" id="DejaVuSans-86"/>
      <path d="M 9.8125 72.90625 
L 24.515625 72.90625 
L 43.109375 23.296875 
L 61.8125 72.90625 
L 76.515625 72.90625 
L 76.515625 0 
L 66.890625 0 
L 66.890625 64.015625 
L 48.09375 14.015625 
L 38.1875 14.015625 
L 19.390625 64.015625 
L 19.390625 0 
L 9.8125 0 
z
" id="DejaVuSans-77"/>
     </defs>
     <g transform="translate(372.896 111.7706)scale(0.08 -0.08)">
      <use xlink:href="#DejaVuSans-72"/>
      <use x="75.195312" xlink:href="#DejaVuSans-79"/>
      <use x="153.90625" xlink:href="#DejaVuSans-71"/>
      <use x="231.396484" xlink:href="#DejaVuSans-45"/>
      <use x="267.480469" xlink:href="#DejaVuSans-83"/>
      <use x="330.957031" xlink:href="#DejaVuSans-86"/>
      <use x="399.365234" xlink:href="#DejaVuSans-77"/>
     </g>
    </g>
    <g id="PathCollection_5">
     <g>
      <use style="fill:#3489bc;stroke:#3489bc;stroke-width:1.5;" x="358.496" xlink:href="#m2882a1b7bf" y="121.4131"/>
     </g>
    </g>
    <g id="text_17">
     <!-- YOLO -->
     <defs>
      <path d="M -0.203125 72.90625 
L 10.40625 72.90625 
L 30.609375 42.921875 
L 50.6875 72.90625 
L 61.28125 72.90625 
L 35.5 34.71875 
L 35.5 0 
L 25.59375 0 
L 25.59375 34.71875 
z
" id="DejaVuSans-89"/>
      <path d="M 9.8125 72.90625 
L 19.671875 72.90625 
L 19.671875 8.296875 
L 55.171875 8.296875 
L 55.171875 0 
L 9.8125 0 
z
" id="DejaVuSans-76"/>
     </defs>
     <g transform="translate(372.896 123.5131)scale(0.08 -0.08)">
      <use xlink:href="#DejaVuSans-89"/>
      <use x="55.583984" xlink:href="#DejaVuSans-79"/>
      <use x="134.294922" xlink:href="#DejaVuSans-76"/>
      <use x="186.382812" xlink:href="#DejaVuSans-79"/>
     </g>
    </g>
    <g id="PathCollection_6">
     <g>
      <use style="fill:#988ed5;stroke:#988ed5;stroke-width:1.5;" x="358.496" xlink:href="#mcfa6447baf" y="133.1556"/>
     </g>
    </g>
    <g id="text_18">
     <!-- RCNN -->
     <defs>
      <path d="M 44.390625 34.1875 
Q 47.5625 33.109375 50.5625 29.59375 
Q 53.5625 26.078125 56.59375 19.921875 
L 66.609375 0 
L 56 0 
L 46.6875 18.703125 
Q 43.0625 26.03125 39.671875 28.421875 
Q 36.28125 30.8125 30.421875 30.8125 
L 19.671875 30.8125 
L 19.671875 0 
L 9.8125 0 
L 9.8125 72.90625 
L 32.078125 72.90625 
Q 44.578125 72.90625 50.734375 67.671875 
Q 56.890625 62.453125 56.890625 51.90625 
Q 56.890625 45.015625 53.6875 40.46875 
Q 50.484375 35.9375 44.390625 34.1875 
z
M 19.671875 64.796875 
L 19.671875 38.921875 
L 32.078125 38.921875 
Q 39.203125 38.921875 42.84375 42.21875 
Q 46.484375 45.515625 46.484375 51.90625 
Q 46.484375 58.296875 42.84375 61.546875 
Q 39.203125 64.796875 32.078125 64.796875 
z
" id="DejaVuSans-82"/>
      <path d="M 64.40625 67.28125 
L 64.40625 56.890625 
Q 59.421875 61.53125 53.78125 63.8125 
Q 48.140625 66.109375 41.796875 66.109375 
Q 29.296875 66.109375 22.65625 58.46875 
Q 16.015625 50.828125 16.015625 36.375 
Q 16.015625 21.96875 22.65625 14.328125 
Q 29.296875 6.6875 41.796875 6.6875 
Q 48.140625 6.6875 53.78125 8.984375 
Q 59.421875 11.28125 64.40625 15.921875 
L 64.40625 5.609375 
Q 59.234375 2.09375 53.4375 0.328125 
Q 47.65625 -1.421875 41.21875 -1.421875 
Q 24.65625 -1.421875 15.125 8.703125 
Q 5.609375 18.84375 5.609375 36.375 
Q 5.609375 53.953125 15.125 64.078125 
Q 24.65625 74.21875 41.21875 74.21875 
Q 47.75 74.21875 53.53125 72.484375 
Q 59.328125 70.75 64.40625 67.28125 
z
" id="DejaVuSans-67"/>
      <path d="M 9.8125 72.90625 
L 23.09375 72.90625 
L 55.421875 11.921875 
L 55.421875 72.90625 
L 64.984375 72.90625 
L 64.984375 0 
L 51.703125 0 
L 19.390625 60.984375 
L 19.390625 0 
L 9.8125 0 
z
" id="DejaVuSans-78"/>
     </defs>
     <g transform="translate(372.896 135.2556)scale(0.08 -0.08)">
      <use xlink:href="#DejaVuSans-82"/>
      <use x="64.482422" xlink:href="#DejaVuSans-67"/>
      <use x="134.306641" xlink:href="#DejaVuSans-78"/>
      <use x="209.111328" xlink:href="#DejaVuSans-78"/>
     </g>
    </g>
   </g>
  </g>
 </g>
 <defs>
  <clipPath id="p760a625355">
   <rect height="266.112" width="357.12" x="57.6" y="41.472"/>
  </clipPath>
 </defs>
</svg>
